<?xml version="1.0" standalone="no"?><!DOCTYPE svg PUBLIC "-//W3C//DTD SVG 1.1//EN" "http://www.w3.org/Graphics/SVG/1.1/DTD/svg11.dtd"><svg t="1753331045243" class="icon" viewBox="0 0 1024 1024" version="1.1" xmlns="http://www.w3.org/2000/svg" p-id="8542" xmlns:xlink="http://www.w3.org/1999/xlink" width="200" height="200"><path d="M503.663287 425.361106a83.901935 83.901935 0 0 1 54.487496 48.384393l33.598526 9.437788a95.038525 95.038525 0 0 0-63.767988-82.077296 87.456836 87.456836 0 0 0-93.591398 36.775914 78.648233 78.648233 0 0 1 69.210446-12.583718z m267.403994 48.698986a87.330998 87.330998 0 0 0-93.559938 36.712996 78.459478 78.459478 0 0 1 69.210445-12.426421 84.027773 84.027773 0 0 1 54.707711 48.384393l33.661444 9.437788a95.227281 95.227281 0 0 0-63.799447-82.266052zM737.751889 646.488479l-279.515821-78.144885a125.837174 125.837174 0 0 0 14.628571 35.20295l235.346974 65.781382a125.459662 125.459662 0 0 0 29.540276-22.839447z m-193.789247 168.181383c-221.316129-59.332227-194.57573-341.333333-158.743594-475.035331a800.890691 800.890691 0 0 1 42.470046-123.446267c-7.487312-1.541505-13.716252 2.422366-19.850814 14.880246a751.153548 751.153548 0 0 0-46.842888 133.072811c-35.800676 133.607619-62.572535 415.608725 158.743594 475.03533 104.319017 27.935853 185.609831-14.534194 246.168971-81.227895a227.450691 227.450691 0 0 1-221.850937 56.941321z" fill="#2D4552" p-id="8543"></path><path d="M421.680369 665.61573V608.737327L263.471582 653.535361a125.837174 125.837174 0 0 1 94.126206-91.231951 136.816467 136.816467 0 0 1 63.956743-3.649278v-233.427957h79.151583a474.15447 474.15447 0 0 0-23.971982-61.377081c-11.57702-23.59447-23.468633-7.959201-50.334869 14.597112a375.592504 375.592504 0 0 1-139.207374 69.210445 373.642028 373.642028 0 0 1-154.968479 10.098433c-34.605223-5.945806-52.599939-13.527496-50.901137 12.583718a576.145499 576.145499 0 0 0 19.6306 106.552627c27.338126 102.746052 117.752135 300.719386 288.576098 254.820276a171.610445 171.610445 0 0 0 97.964239-66.064516h-65.812841z m-255.13487-187.245715l121.401413-31.962642a68.140829 68.140829 0 0 1-49.045038 58.703042 69.682335 69.682335 0 0 1-72.356375-26.7404z" fill="#E2574C" p-id="8544"></path><path d="M878.595146 327.931674a483.403502 483.403502 0 0 1-200.836129-12.583717 483.151828 483.151828 0 0 1-180.293211-89.50169c-34.888356-29.225684-50.334869-49.516928-65.309493-18.875576a751.877112 751.877112 0 0 0-46.937265 132.884056c-35.800676 133.607619-62.541075 415.608725 158.743594 475.03533s339.068264-198.193548 374.86894-331.958464a754.299478 754.299478 0 0 0 25.765161-138.420891c2.265069-34.133333-21.172104-24.223656-66.064516-16.358833z m-444.645653 110.547957a88.086022 88.086022 0 0 1 94.031828-37.436559 95.038525 95.038525 0 0 1 63.767988 82.234593z m144.398157 243.400553a162.424332 162.424332 0 0 1-120.080123-113.442212L737.751889 646.488479a153.741567 153.741567 0 0 1-159.404239 35.297327z m98.81364-170.50937a88.086022 88.086022 0 0 1 93.96891-37.342181 95.227281 95.227281 0 0 1 63.799447 82.266052l-157.768357-44.923871z" fill="#2EAD33" p-id="8545"></path><path d="M366.437849 624.466974l-102.966267 29.068387a124.893395 124.893395 0 0 1 87.047865-88.841045l-58.262611-218.610629-5.033487 1.541505a373.610568 373.610568 0 0 1-154.96848 10.098433c-34.605223-5.945806-52.599939-13.527496-50.901136 12.583718a576.176959 576.176959 0 0 0 19.630599 106.552626c27.338126 102.746052 117.752135 300.719386 288.576098 254.820277l5.033487-1.572965z m-199.89235-146.096959l121.401413-31.962642a68.140829 68.140829 0 0 1-49.045038 58.703042 69.682335 69.682335 0 0 1-72.356375-26.7404z" fill="#D65348" p-id="8546"></path><path d="M583.035084 683.044178l-4.718894-1.132534a162.424332 162.424332 0 0 1-120.080122-113.442212l144.115023 40.267895L678.734255 315.505253l-0.91232-0.251674a483.183287 483.183287 0 0 1-180.29321-89.50169c-34.888356-29.225684-50.334869-49.516928-65.309493-18.875576a753.041106 753.041106 0 0 0-46.937266 132.884056c-35.800676 133.607619-62.541075 415.608725 158.743595 475.03533l4.530138 1.006697z m-149.085591-244.533087a88.086022 88.086022 0 0 1 94.031828-37.43656 95.038525 95.038525 0 0 1 63.767988 82.234593zM11.608479 0.251674" fill="#1D8D22" p-id="8547"></path></svg>